# xmcd CD database file
#
# Track frame offsets:
#	150
#	30381
#	60474
#	89831
#	108649
#	127946
#	155002
#
# Disc length: 2414 seconds
#
# Revision: 0
# Processed by: cddbd v1.4PL0 Copyright (c) Steve Scherf et al.
# Submitted via: CDex 1.50beta10
#
DISCID=57096c07
DTITLE=John Klemmer - Involvement
DYEAR=1967
DGENRE=Jazz
TTITLE0=Stand in the Sun
TTITLE1=My Blues
TTITLE2=You Don't Know What Love Is
TTITLE3=Later with Them Woes
TTITLE4=Passion Food
TTITLE5=How Deep is the Ocean
TTITLE6=Will 'N' Jug
EXTD=YEAR: 1967
EXTT0=
EXTT1=
EXTT2=
EXTT3=
EXTT4=
EXTT5=
EXTT6=
PLAYORDER=
